<mxfile host="app.diagrams.net" modified="2021-01-14T06:35:43.796Z" agent="5.0 (Windows)" etag="sGkxrtCAeCeN3w4dqguq" version="14.2.2" type="github">
  <diagram id="xo9yJHF5ZC7IuUjmxbOy" name="Page-1">
    <mxGraphModel dx="782" dy="707" grid="1" gridSize="10" guides="1" tooltips="1" connect="1" arrows="1" fold="1" page="1" pageScale="1" pageWidth="827" pageHeight="1169" math="0" shadow="0">
      <root>
        <mxCell id="0" />
        <mxCell id="1" parent="0" />
        <mxCell id="-mi4qLx-ravPEUi1Ixxj-2" style="edgeStyle=orthogonalEdgeStyle;rounded=0;orthogonalLoop=1;jettySize=auto;html=1;entryX=0.5;entryY=0;entryDx=0;entryDy=0;" edge="1" parent="1" source="-mi4qLx-ravPEUi1Ixxj-1" target="-mi4qLx-ravPEUi1Ixxj-4">
          <mxGeometry relative="1" as="geometry">
            <mxPoint x="400" y="240" as="targetPoint" />
          </mxGeometry>
        </mxCell>
        <mxCell id="-mi4qLx-ravPEUi1Ixxj-1" value="开始" style="rounded=1;whiteSpace=wrap;html=1;" vertex="1" parent="1">
          <mxGeometry x="340" y="130" width="120" height="60" as="geometry" />
        </mxCell>
        <mxCell id="-mi4qLx-ravPEUi1Ixxj-6" style="edgeStyle=orthogonalEdgeStyle;rounded=0;orthogonalLoop=1;jettySize=auto;html=1;exitX=0.5;exitY=1;exitDx=0;exitDy=0;entryX=0.5;entryY=0;entryDx=0;entryDy=0;" edge="1" parent="1" source="-mi4qLx-ravPEUi1Ixxj-4" target="-mi4qLx-ravPEUi1Ixxj-5">
          <mxGeometry relative="1" as="geometry" />
        </mxCell>
        <mxCell id="-mi4qLx-ravPEUi1Ixxj-4" value="获取不多于1000个修改时间超过1天的文件" style="strokeWidth=2;html=1;shape=mxgraph.flowchart.document2;whiteSpace=wrap;size=0.25;" vertex="1" parent="1">
          <mxGeometry x="325" y="250" width="150" height="60" as="geometry" />
        </mxCell>
        <mxCell id="-mi4qLx-ravPEUi1Ixxj-8" style="edgeStyle=orthogonalEdgeStyle;rounded=0;orthogonalLoop=1;jettySize=auto;html=1;exitX=0.5;exitY=1;exitDx=0;exitDy=0;entryX=0.5;entryY=0;entryDx=0;entryDy=0;" edge="1" parent="1" source="-mi4qLx-ravPEUi1Ixxj-5" target="-mi4qLx-ravPEUi1Ixxj-7">
          <mxGeometry relative="1" as="geometry" />
        </mxCell>
        <mxCell id="-mi4qLx-ravPEUi1Ixxj-5" value="删除" style="strokeWidth=2;html=1;shape=mxgraph.flowchart.document2;whiteSpace=wrap;size=0.25;" vertex="1" parent="1">
          <mxGeometry x="323.75" y="360" width="152.5" height="60" as="geometry" />
        </mxCell>
        <mxCell id="-mi4qLx-ravPEUi1Ixxj-7" value="结束" style="rounded=1;whiteSpace=wrap;html=1;" vertex="1" parent="1">
          <mxGeometry x="340" y="470" width="120" height="60" as="geometry" />
        </mxCell>
      </root>
    </mxGraphModel>
  </diagram>
</mxfile>
